<?xml version="1.0" standalone="no"?><!DOCTYPE svg PUBLIC "-//W3C//DTD SVG 1.1//EN" "http://www.w3.org/Graphics/SVG/1.1/DTD/svg11.dtd"><svg t="1612175112660" class="icon" viewBox="0 0 1053 1024" version="1.1" xmlns="http://www.w3.org/2000/svg" p-id="2051" xmlns:xlink="http://www.w3.org/1999/xlink" width="205.6640625" height="200"><defs><style type="text/css"></style></defs><path d="M526.628571 0c290.845257 0 526.628571 200.616229 526.628572 447.926857 0 247.515429-228.205714 447.926857-526.628572 447.926857-33.762743 0-67.466971-4.388571-99.474285-9.362285L197.485714 1024v-226.7136C77.180343 715.278629 0 589.326629 0 447.926857 0 200.616229 235.7248 0 526.628571 0z m0 830.902857c263.314286 0 468.114286-175.250286 468.114286-387.715657C994.742857 230.692571 785.086171 58.514286 526.628571 58.514286 267.995429 58.514286 58.514286 230.692571 58.514286 443.1872c0 130.428343 78.994286 245.496686 199.68 315.040914L257.462857 912.822857l156.174629-96.519314c36.2496 7.314286 73.962057 14.599314 112.991085 14.599314z m29.227886-304.274286a29.227886 29.227886 0 1 1 0 58.514286h-233.998628C305.707886 585.142857 292.571429 571.977143 292.571429 555.797943A29.198629 29.198629 0 0 1 321.857829 526.628571h233.998628zM702.171429 526.628571c17.554286 0 29.257143 13.019429 29.257142 29.169372C731.428571 571.977143 719.725714 585.142857 702.171429 585.142857h-29.257143c-17.554286 0-29.257143-13.165714-29.257143-29.344914 0-16.149943 11.702857-29.169371 29.257143-29.169372h29.257143z m58.485028-204.8c16.149943 0 29.2864 13.165714 29.2864 29.344915a29.198629 29.198629 0 0 1-29.2864 29.169371H292.571429a29.227886 29.227886 0 1 1 0-58.514286H760.685714z" p-id="2052"></path></svg>